<?xml version="1.0" encoding="utf-8"?>
<!-- Generator: Adobe Illustrator 16.0.0, SVG Export Plug-In . SVG Version: 6.00 Build 0)  -->
<!DOCTYPE svg PUBLIC "-//W3C//DTD SVG 1.1//EN" "http://www.w3.org/Graphics/SVG/1.1/DTD/svg11.dtd">
<svg version="1.1" id="Layer_1" xmlns="http://www.w3.org/2000/svg" xmlns:xlink="http://www.w3.org/1999/xlink" x="0px" y="0px"
	 width="150px" height="150px" viewBox="0 0 150 150" enable-background="new 0 0 150 150" xml:space="preserve">
<path fill="#22B573" d="M138.934,114.792l6.311-6.311c-6.277-6.288-13.906-10.377-21.947-12.337l-0.041-0.039l-0.021,0.021
	c-5.145-1.244-10.455-1.639-15.709-1.134c1.309-13.47-3.16-27.406-13.479-37.721C83.754,46.984,69.875,42.51,56.443,43.793
	c2.261-14.308-2.078-29.456-13.114-40.475l-6.313,6.318c1.029,1.021,1.944,2.115,2.829,3.228L14.3,38.403
	c-1.112-0.883-2.205-1.799-3.227-2.828l-6.318,6.313c11.023,11.029,26.172,15.379,40.479,13.114
	c-1.282,13.436,3.19,27.312,13.48,37.608c10.314,10.317,24.238,14.79,37.708,13.49c-2.293,14.332,2.061,29.53,13.113,40.581
	l6.314-6.324c-0.914-0.915-1.713-1.884-2.516-2.871l24.059-24.056C137.906,113.894,138.445,114.303,138.934,114.792
	 M105.023,117.836l13.572-13.566c0.961,0.173,1.912,0.409,2.867,0.647l-15.932,15.937
	C105.336,119.854,105.143,118.854,105.023,117.836 M105.91,104.2c3.168-0.521,6.383-0.604,9.578-0.322l-10.68,10.679
	C104.707,111.085,105.047,107.597,105.91,104.2 M80.152,95.536l16.816-16.813c0.293,0.918,0.516,1.847,0.74,2.773L82.932,96.283
	C82,96.049,81.07,95.827,80.152,95.536 M96.02,76.172L77.607,94.576c-2.828-1.143-5.533-2.639-8.072-4.495l21.992-21.988
	C93.377,70.638,94.869,73.345,96.02,76.172 M87.744,64.853l1.756,1.762L67.572,88.542c-0.633-0.526-1.254-1.066-1.86-1.65
	L87.744,64.853z M56.204,72.268l17.492-17.501c0.861,0.312,1.729,0.59,2.563,0.963L57.155,74.828
	C56.788,73.983,56.511,73.122,56.204,72.268 M71.057,53.913L55.355,69.622c-1.497-5.417-1.817-11.086-0.879-16.591
	C59.979,52.084,65.645,52.413,71.057,53.913 M37.504,46.678c-1.1-0.011-2.188-0.132-3.277-0.237l13.659-13.66
	c0.098,1.09,0.222,2.185,0.232,3.284L37.504,46.678z M31.148,46.009c-3.593-0.647-7.098-1.816-10.417-3.504l23.215-23.212
	c1.687,3.318,2.857,6.818,3.507,10.409L31.148,46.009z M41.315,14.892c0.485,0.695,0.981,1.396,1.407,2.118L18.451,41.287
	c-0.721-0.432-1.421-0.922-2.117-1.406L41.315,14.892z M41.2,46.489l6.725-6.728c-0.172,1.948-0.439,3.9-0.911,5.812
	C45.1,46.044,43.152,46.312,41.2,46.489 M58.355,77.136L78.58,56.92c2.834,1.494,5.514,3.359,7.971,5.627l-22.562,22.57
	C61.716,82.653,59.841,79.966,58.355,77.136 M85.824,96.878l12.49-12.489c0.66,4.133,0.676,8.336-0.029,12.464
	C94.16,97.556,89.957,97.538,85.824,96.878 M111.822,135.514c-0.494-0.692-0.961-1.402-1.4-2.121l23.037-23.039l1.764,1.755
	L111.822,135.514z M109.143,131.164c-1.26-2.392-2.271-4.873-2.986-7.427l18.029-18.045c2.479,0.833,4.877,1.904,7.18,3.257
	L109.143,131.164z"/>
</svg>
