<?xml version="1.0" encoding="utf-8"?>
<!-- Generator: Adobe Illustrator 16.0.0, SVG Export Plug-In . SVG Version: 6.00 Build 0)  -->
<!DOCTYPE svg PUBLIC "-//W3C//DTD SVG 1.1//EN" "http://www.w3.org/Graphics/SVG/1.1/DTD/svg11.dtd">
<svg version="1.1" id="Layer_1" xmlns="http://www.w3.org/2000/svg" xmlns:xlink="http://www.w3.org/1999/xlink" x="0px" y="0px"
	 width="150px" height="150px" viewBox="0 0 150 150" enable-background="new 0 0 150 150" xml:space="preserve">
<path fill="#29ABE2" d="M125.891,99.354c-3.491,0-6.656,1.314-9.075,3.475l-7.455-8.23c4.906-6.301,7.83-14.205,7.83-22.792
	c0-13.561-7.276-25.434-18.136-31.895l8.976-15.952c1.056,0.368,2.188,0.584,3.354,0.584c5.601,0,10.149-4.547,10.149-10.148
	c0-5.603-4.545-10.149-10.139-10.149c-5.595,0-10.151,4.553-10.151,10.154c0,3.073,1.368,5.807,3.534,7.685l-9.074,16.061
	c-4.744-2.218-10.049-3.458-15.629-3.458c-8.548,0-16.402,2.908-22.68,7.737l-8.353-10.574c1.988-2.476,3.207-5.619,3.207-9.054
	c0-8.02-6.502-14.498-14.498-14.498c-8.007,0-14.498,6.484-14.498,14.498c0,8.014,6.491,14.498,14.498,14.498
	c3.199,0,6.17-1.056,8.563-2.813l8.22,10.418C47.406,51.654,42.96,61.213,42.96,71.812c0,0.206,0.018,0.378,0.018,0.574h-9.174
	c-1.384-5.022-5.974-8.698-11.437-8.698c-6.576,0-11.885,5.332-11.885,11.878c0,6.578,5.309,11.902,11.885,11.902
	c6.462,0,11.712-5.174,11.867-11.597h8.948c1.508,13.966,10.8,25.589,23.419,30.517l-3.117,6.361
	c-1.948-0.789-4.08-1.207-6.324-1.207c-9.45,0-17.111,7.645-17.111,17.102c0,9.445,7.661,17.109,17.111,17.109
	c9.465,0,17.111-7.664,17.111-17.109c0-5.959-3.062-11.219-7.686-14.264l3.359-6.859c3.218,0.912,6.611,1.408,10.129,1.408
	c10.636,0,20.229-4.482,26.982-11.666l7.457,8.213c-1.425,2.158-2.266,4.732-2.266,7.518c0,7.537,6.107,13.627,13.643,13.627
	c7.509,0,13.627-6.09,13.627-13.627C139.518,105.465,133.399,99.354,125.891,99.354"/>
</svg>
