<?xml version="1.0" encoding="utf-8"?>
<!-- Generator: Adobe Illustrator 16.0.0, SVG Export Plug-In . SVG Version: 6.00 Build 0)  -->
<!DOCTYPE svg PUBLIC "-//W3C//DTD SVG 1.1//EN" "http://www.w3.org/Graphics/SVG/1.1/DTD/svg11.dtd">
<svg version="1.1" id="Layer_1" xmlns="http://www.w3.org/2000/svg" xmlns:xlink="http://www.w3.org/1999/xlink" x="0px" y="0px"
	 width="150px" height="150px" viewBox="0 0 150 150" enable-background="new 0 0 150 150" xml:space="preserve">
<path fill="#FBB03B" d="M74.999,3.517C35.585,3.517,3.515,35.582,3.515,75s32.07,71.483,71.483,71.483
	c39.417,0,71.486-32.062,71.486-71.483C146.484,35.582,114.416,3.517,74.999,3.517 M61.254,29.108l3.339,0.949v-4.395l1.302-1.226
	l1.392,2.703l2.655,3.204l-1.074,1.474l-4.279,0.984v-2.604l-3.339,2.604l-0.97-1.479L61.254,29.108z M9.766,73.405
	c0.334-13.836,4.99-26.585,12.681-37.015c0.256,0.033,0.439,0.102,0.439,0.102c0,0.981-1.341,1.22,0,3.692
	c1.715,3.199,0.242,4.678,0.242,4.678s-4.188,2.952-4.922,3.446c-0.738,0.489-2.707,3.198-1.48,2.457
	c1.232-0.737,2.707-1.475,1.48,0.494c-1.232,1.973-3.449,5.168-3.936,6.404c-0.49,1.234-2.952,4.181-2.952,5.659
	c0,1.48-0.985,4.437-0.736,5.667C10.746,69.844,10.195,72.371,9.766,73.405 M35.188,114.52l-0.988,3.683l0.988,2.953
	c0,0-1.484,1.234-2.458,1.234c-0.905,0-1.215,0.569-2.209,0.308c-9.386-8.769-16.198-20.233-19.148-33.181
	c0.317,0.08,0.772,0.312,1.412,0.879c0.927,0.807,1.479,1.221,2.71,1.721c1.226,0.501,1.717,1.227,3.198,1.963
	c1.479,0.746,0.99,0.252,2.952,2.467c1.972,2.21,1.726,2.21,2.214,3.441c0.49,1.229,1.232,2.463,1.726,3.205
	c0.494,0.739,1.968,1.23,2.705,1.723c0.737,0.491,1.968,0.988,2.703,0.988c0.745,0,2.96,2.213,4.189,2.455
	c1.232,0.255,1.232,2.715,1.232,2.715L35.188,114.52z M45.033,19.517c-3.201,3.441-2.464,2.458-3.201,3.441
	c-0.736,0.983-0.496,1.227-2.22,2.462c-1.72,1.227-2.457,2.705-2.457,2.705l-2.71,0.983l-2.21-0.983c0,0-1.978,0.741-1.73-0.247
	c0.07-0.258,0.17-0.529,0.287-0.816c6.025-5.561,13.073-9.986,20.854-12.985c-0.77,0.985-1.696,1.995-1.696,1.995
	S48.231,16.065,45.033,19.517 M120.098,107.867c-0.256,0.981-0.738,2.705-0.984,3.69c-0.246,0.983-1.477,2.957-2.209,3.448
	c-0.736,0.491-1.975,1.971-2.707,2.217c-0.736,0.247-1.234-1.73-0.986-2.708c0.256-0.993,1.477-3.696,1.477-3.696
	s0.25-1.473,0.494-2.46c0.254-0.976,3.205-2.21,3.205-2.21l1.973-3.694c0,0,0.248,0.987,0.248,1.725
	C120.592,104.911,120.344,106.886,120.098,107.867 M120.834,84.731c-0.494,0.738-1.973,2.701-2.709,3.688
	c-0.736,0.979-1.719,2.459-3.195,3.689c-1.477,1.234-1.486,2.454-2.215,3.453c-0.736,0.984-1.725,3.194-1.725,3.194
	s0.496,4.931,0.736,5.912c0.252,0.983-1.721,3.686-1.721,3.686l-2.215,2.215l-2.969,3.939l0.238,3.685c0,0-2.234,1.725-3.473,2.709
	c-1.219,0.983-1.027,1.723-2.012,2.71c-0.973,0.975-3.586,2.698-4.57,2.953c-0.979,0.245-5.162,0.978-5.162,0.978v-2.207
	l-1.363-2.466c0,0-1.365-2.948-2.109-3.94c-0.734-0.979-0.73-2.462-1.961-3.688c-1.232-1.231-1.832-2.21-2.082-2.958
	c-0.252-0.736,0.184-2.944,0.184-2.944s0.949-2.709,1.441-3.69c0.496-0.983-0.014-2.46-0.512-3.448
	c-0.496-0.992-0.738-3.451-0.738-4.186c0-0.73-1.99-1.977-2.719-2.709c-0.736-0.742-0.496-1.724-0.496-2.703
	c0-0.985-0.736-3.207-0.498-4.927c0.248-1.721-2.213-0.499-3.683,0c-1.48,0.49-2.458-0.499-2.458-1.979
	c0-1.468-2.705-0.237-4.431,0.738c-1.729,0.985-3.692,0.985-5.673,1.723c-1.961,0.736-2.941-0.737-2.941-0.737
	s-1.729-1.479-2.95-2.215c-1.236-0.738-2.468-2.211-3.457-3.441c-0.98-1.237-3.446-4.933-3.684-6.399c-0.249-1.484,0-2.473,0-4.192
	c0-1.721,0-2.706,0.244-3.936c0.246-1.23,0.982-2.71,1.726-3.941c0.734-1.232,3.444-2.703,4.176-3.199
	c0.738-0.489,2.462-1.964,2.462-2.951c0-0.985,0.991-1.475,1.472-2.463c0.5-0.985,2.223-3.44,4.438-2.457c0,0,1.963-0.242,2.7-0.489
	c0.735-0.247,2.704-0.979,3.678-1.474c0.983-0.495,3.436-0.726,3.436-0.726s1.937,0.771,2.676,0.771
	c0.734,0,3.143-0.428,3.143-0.428s1.109,3.565,1.109,4.31c0,0.74,0.738,1.472,1.979,1.966c1.223,0.49,6.889,1.723,9.354-0.246
	c0.57-0.454,2.453,0.736,2.453,0.736s6.148,1.232,7.137,1.968c0.988,0.742,2.707,1.236,3.201,1.979
	c0.502,0.736,2.209,2.951,2.453,3.688c0.256,0.734,1.486,3.451,1.736,4.429c0.246,0.982,0.977,3.445,1.715,4.677
	c0.736,1.238,4.93,6.641,6.404,9.108l4.439-0.738C121.82,81.78,121.33,83.996,120.834,84.731 M138.803,75.389
	c-0.242-0.988-1.723-4.436-1.723-4.436s-1.477-1.967-2.459-2.463c-0.98-0.493-1.723-1.726-3.449-2.703
	c-1.723-0.989-2.457-1.479-3.93-1.479c-1.484,0-2.949-1.973-4.684-2.956c-1.725-0.98-1.973-0.491-1.973-0.491
	s1.973,2.951,1.973,3.688c0,0.737,2.211,1.97,4.438,1.475c0,0,1.471,2.71,2.209,3.447c0.734,0.737-0.246,1.479-1.721,2.463
	c-1.479,0.977-1.227,0.736-1.977,1.472c-0.738,0.735-3.197,1.979-3.938,2.463c-0.736,0.487-3.689,1.968-5.156,0.487
	c-0.727-0.708-0.506-2.207-0.986-3.196c-0.49-0.984-5.66-8.614-8.123-12.056c-0.426-0.605-1.477-2.472-2.209-2.95
	c-0.736-0.499,1.73-0.499,1.73-0.499s0-1.727-0.252-2.953c-0.248-1.232,0.252-2.95,0.252-2.95s-2.461,1.473-3.209,1.967
	c-0.734,0.495-1.479-0.979-2.453-2.216c-0.98-1.226-1.971-2.71-2.213-3.94c-0.248-1.226,1.232-1.721,1.232-1.721l2.207-1.228
	c0,0,2.709-0.489,4.443-0.246c1.719,0.246,4.422,0.495,4.422,0.495s0.736-1.726-0.252-2.462c-0.973-0.738-3.203-1.969-4.182-1.724
	c-0.98,0.245,0.49-1.229,1.717-2.214l-2.727-0.492c0,0-2.479,1.229-3.225,1.477c-0.738,0.242-2.014,0.737-3.006,1.968
	c-0.975,1.231,0.395,2.952-0.592,3.447c-0.973,0.494-1.643,0.736-2.385,0.979c-0.736,0.247-3.074,0-3.074,0
	c-2.543,0-0.918,2.32-0.258,3.144l-1.967-2.402l-1.459-3.449c0,0-2.098-1.475-3.078-1.963c-0.994-0.493-4.02-2.216-4.02-2.216
	l0.203,2.216l2.854,2.884l0.252,0.066l1.744,1.968l-3.016,0.248v-1.944c-5.047-0.746-2.543-1.513-2.887-1.751
	c-0.732-0.489-2.572-1.726-2.572-1.726s-2.967,0.496-3.706,0.743c-0.739,0.248-0.973,0.982-2.447,1.475
	c-1.482,0.493-2.167,1.229-2.657,1.966c-0.49,0.737-2.1,2.952-3.074,3.937c-0.988,0.988-2.837,0.736-3.574,0.736
	c-0.742,0-4.307-0.983-4.307-0.983v-4.175c0,0,0.492-2.34,0.246-3.077l2.165-0.362l3.596-0.742l1.062-0.742l1.513-1.967
	c0,0-1.702-1.23-0.476-2.953c0.591-0.826,2.715-0.984,3.7-1.721c0.979-0.735,2.467-1.23,2.467-1.23s1.726-1.474,3.446-3.199
	c0,0,1.23-0.741,2.705-1.236c0,0,4.189,3.694,4.928,3.694c0.744,0,3.453-1.721,3.453-1.721s0.736-2.211,0.496-2.952
	c-0.248-0.737-1.479-3.199-1.479-3.199s-0.738,1.232-1.469,2.215c-0.74,0.984-1.24,2.216-1.24,2.216s-3.455-0.236-3.689-0.973
	c-0.252-0.744-0.738-1.96-0.99-2.689c-0.236-0.745-2.211-0.719-3.678-0.224c-1.485,0.494,0.238-2.652,0.238-2.652
	s1.482-1.859,2.461-1.859c0.973,0,3.205-1.262,4.18-1.502c0.982-0.248,3.943-2.14,5.166-2.14c1.23,0,2.709-0.233,3.453-0.233h3.688
	l5.16,0.349c0,0,4.434,2.02,2.945,3.008c0,0,1.736,1.26,2.475,1.997c0.689,0.697,2.473-0.542,3.494-1.114
	C128,31.168,140.316,51.653,140.316,74.96c0,1.252-0.109,2.496-0.184,3.733C139.658,77.524,138.967,76.035,138.803,75.389"/>
<polygon fill="#FBB03B" points="74.961,74.93 74.961,75.07 75.039,74.97 "/>
</svg>
