<?xml version="1.0" encoding="utf-8"?>
<!-- Generator: Adobe Illustrator 16.0.0, SVG Export Plug-In . SVG Version: 6.00 Build 0)  -->
<!DOCTYPE svg PUBLIC "-//W3C//DTD SVG 1.1//EN" "http://www.w3.org/Graphics/SVG/1.1/DTD/svg11.dtd">
<svg version="1.1" id="Layer_1" xmlns="http://www.w3.org/2000/svg" xmlns:xlink="http://www.w3.org/1999/xlink" x="0px" y="0px"
	 width="150px" height="150px" viewBox="0 0 150 150" enable-background="new 0 0 150 150" xml:space="preserve">
<path fill="#F15A24" d="M67.66,83.688c2.985-1.863,5.688-4.141,8.033-6.746l8.447,4.879l7.691-13.322l-8.43-4.867
	c1.072-3.275,1.703-6.747,1.818-10.343l9.592-1.69l-2.67-15.151l-9.592,1.69c-1.324-3.28-3.104-6.335-5.26-9.079l6.268-7.471
	l-11.783-9.888l-6.262,7.463c-3.059-1.639-6.371-2.863-9.864-3.6V5.829H40.267v9.733c-3.488,0.737-6.804,1.96-9.859,3.6
	l-6.265-7.463L12.36,21.586l6.266,7.471c-2.155,2.744-3.935,5.799-5.26,9.079l-9.588-1.69L1.11,51.597l9.585,1.69
	c0.119,3.6,0.75,7.068,1.824,10.343l-8.434,4.867l7.69,13.322l8.45-4.879c2.343,2.609,5.045,4.883,8.033,6.75l-3.336,9.156
	l14.458,5.264l3.33-9.152c1.715,0.248,3.468,0.377,5.25,0.377c1.783,0,3.534-0.129,5.25-0.377l3.331,9.152l14.455-5.264
	L67.66,83.688z M47.959,71.692c-10.831,0-19.645-8.811-19.645-19.645c0-10.83,8.813-19.644,19.645-19.644
	c10.831,0,19.645,8.814,19.645,19.644C67.604,62.881,58.793,71.692,47.959,71.692"/>
<path fill="#F15A24" d="M133.781,95.242l-6.633,2.143c-1.266-2.195-2.83-4.189-4.629-5.922l3.707-5.914l-9.33-5.842l-3.701,5.906
	c-2.336-0.859-4.799-1.4-7.35-1.576l-0.961-6.902l-10.908,1.52l0.961,6.902c-2.402,0.865-4.629,2.061-6.635,3.527l-5.174-4.676
	l-7.383,8.176l5.18,4.682c-1.254,2.158-2.213,4.494-2.826,6.957l-6.967-0.25l-0.399,11.004l6.967,0.25
	c0.438,2.535,1.23,4.936,2.312,7.152l-5.497,4.283l6.772,8.686l5.504-4.295c1.92,1.619,4.061,2.965,6.361,3.992l-1.459,6.822
	l10.768,2.305l1.461-6.814c1.238,0.004,2.49-0.086,3.756-0.254c1.266-0.18,2.498-0.447,3.688-0.785l3.262,6.158l9.73-5.16
	l-3.268-6.164c1.928-1.619,3.621-3.498,5.027-5.58l6.471,2.627l4.135-10.205l-6.457-2.619c0.436-2.426,0.541-4.953,0.271-7.512
	l6.635-2.148L133.781,95.242z M105.939,124.592c-7.684,1.072-14.803-4.305-15.867-11.984c-1.076-7.682,4.303-14.803,11.984-15.869
	c7.68-1.072,14.799,4.305,15.867,11.988C118.994,116.402,113.621,123.521,105.939,124.592"/>
<path fill="#F15A24" d="M148.637,57.079l0.254-8.688l-5.496-0.164c-0.344-1.915-0.961-3.81-1.867-5.634l4.318-3.412l-5.387-6.818
	l-4.318,3.409c-1.535-1.279-3.24-2.325-5.047-3.112l1.113-5.395l-8.51-1.763l-1.117,5.39c-1.961,0.004-3.938,0.285-5.873,0.853
	l-2.605-4.844l-7.654,4.123l2.605,4.844c-1.539,1.299-2.861,2.8-3.945,4.435l-5.111-2.039l-3.215,8.077l5.115,2.042
	c-0.334,1.943-0.402,3.935-0.18,5.924l-5.223,1.729l2.727,8.252l5.227-1.725c1.023,1.761,2.266,3.316,3.68,4.657l-2.891,4.68
	l7.396,4.57l2.896-4.69c1.861,0.668,3.816,1.077,5.803,1.206l0.795,5.449l8.602-1.254l-0.793-5.448
	c0.922-0.334,1.824-0.744,2.711-1.223c0.889-0.474,1.727-1.012,2.514-1.591l4.107,3.66l5.781-6.49l-4.109-3.666
	c0.988-1.729,1.719-3.584,2.188-5.509L148.637,57.079z M127.92,61.736c-5.391,2.903-12.133,0.879-15.037-4.512
	c-2.906-5.388-0.883-12.136,4.508-15.036c5.393-2.903,12.139-0.88,15.041,4.51C135.334,52.086,133.311,58.833,127.92,61.736"/>
</svg>
