<?xml version="1.0" encoding="utf-8"?>
<!-- Generator: Adobe Illustrator 16.0.0, SVG Export Plug-In . SVG Version: 6.00 Build 0)  -->
<!DOCTYPE svg PUBLIC "-//W3C//DTD SVG 1.1//EN" "http://www.w3.org/Graphics/SVG/1.1/DTD/svg11.dtd">
<svg version="1.1" id="Layer_1" xmlns="http://www.w3.org/2000/svg" xmlns:xlink="http://www.w3.org/1999/xlink" x="0px" y="0px"
	 width="150px" height="150px" viewBox="0 0 150 150" enable-background="new 0 0 150 150" xml:space="preserve">
<g>
	<path fill="#00A99D" d="M104.082,22.397c1.135,0,2.062-0.922,2.062-2.058V8.019c0-1.135-0.928-2.061-2.062-2.061
		c-1.133,0-2.059,0.926-2.059,2.061v12.32C102.023,21.476,102.949,22.397,104.082,22.397"/>
	<path fill="#00A99D" d="M92.863,22.397c1.139,0,2.064-0.922,2.064-2.058V8.019c0-1.135-0.926-2.061-2.064-2.061
		c-1.133,0-2.057,0.926-2.057,2.061v12.32C90.807,21.476,91.73,22.397,92.863,22.397"/>
	<path fill="#00A99D" d="M81.438,22.397c1.135,0,2.051-0.922,2.051-2.058V8.019c0-1.135-0.918-2.061-2.051-2.061
		c-1.135,0-2.063,0.926-2.063,2.061v12.32C79.374,21.476,80.299,22.397,81.438,22.397"/>
	<path fill="#00A99D" d="M70.217,22.397c1.134,0,2.057-0.922,2.057-2.058V8.019c0-1.135-0.925-2.061-2.057-2.061
		c-1.137,0-2.06,0.926-2.06,2.061v12.32C68.157,21.476,69.08,22.397,70.217,22.397"/>
	<path fill="#00A99D" d="M59.866,22.397c1.13,0,2.055-0.922,2.055-2.058V8.019c0-1.135-0.925-2.061-2.055-2.061
		c-1.14,0-2.063,0.926-2.063,2.061v12.32C57.803,21.476,58.726,22.397,59.866,22.397"/>
	<path fill="#00A99D" d="M48.645,22.397c1.134,0,2.056-0.922,2.056-2.058V8.019c0-1.135-0.921-2.061-2.056-2.061
		c-1.137,0-2.06,0.922-2.06,2.061v12.32C46.585,21.476,47.508,22.397,48.645,22.397"/>
	<path fill="#00A99D" d="M20.33,43.652H8.014c-1.138,0-2.057,0.925-2.057,2.057c0,1.133,0.919,2.059,2.057,2.059H20.33
		c1.141,0,2.062-0.926,2.062-2.059C22.392,44.577,21.471,43.652,20.33,43.652"/>
	<path fill="#00A99D" d="M20.33,54.873H8.014c-1.138,0-2.057,0.922-2.057,2.056c0,1.136,0.919,2.058,2.057,2.058H20.33
		c1.141,0,2.062-0.922,2.062-2.058C22.392,55.792,21.471,54.873,20.33,54.873"/>
	<path fill="#00A99D" d="M20.33,66.305H8.014c-1.138,0-2.057,0.921-2.057,2.063c0,1.134,0.919,2.054,2.057,2.054H20.33
		c1.141,0,2.062-0.92,2.062-2.054C22.392,67.227,21.471,66.305,20.33,66.305"/>
	<path fill="#00A99D" d="M20.33,77.52H8.014c-1.138,0-2.057,0.925-2.057,2.057c0,1.133,0.919,2.057,2.057,2.057H20.33
		c1.141,0,2.062-0.924,2.062-2.057C22.392,78.444,21.471,77.52,20.33,77.52"/>
	<path fill="#00A99D" d="M20.33,87.866H8.014c-1.138,0-2.057,0.926-2.057,2.058c0,1.141,0.919,2.067,2.057,2.067H20.33
		c1.141,0,2.062-0.927,2.062-2.067C22.392,88.79,21.471,87.866,20.33,87.866"/>
	<path fill="#00A99D" d="M20.33,99.091H8.014c-1.138,0-2.057,0.918-2.057,2.058c0,1.133,0.919,2.061,2.057,2.061H20.33
		c1.141,0,2.062-0.928,2.062-2.061C22.392,100.009,21.471,99.091,20.33,99.091"/>
	<path fill="#00A99D" d="M104.082,127.606c-1.133,0-2.059,0.926-2.059,2.059v12.319c0,1.14,0.926,2.058,2.059,2.058
		c1.135,0,2.062-0.918,2.062-2.058v-12.319C106.145,128.529,105.221,127.606,104.082,127.606"/>
	<path fill="#00A99D" d="M92.863,127.606c-1.133,0-2.057,0.926-2.057,2.059v12.319c0,1.14,0.926,2.058,2.057,2.058
		c1.139,0,2.064-0.918,2.064-2.058v-12.319C94.928,128.529,94.002,127.606,92.863,127.606"/>
	<path fill="#00A99D" d="M81.438,127.606c-1.135,0-2.063,0.926-2.063,2.059v12.319c0,1.14,0.929,2.058,2.063,2.058
		s2.051-0.918,2.051-2.058v-12.319C83.488,128.529,82.57,127.606,81.438,127.606"/>
	<path fill="#00A99D" d="M70.217,127.606c-1.137,0-2.06,0.926-2.06,2.059v12.319c0,1.14,0.919,2.058,2.06,2.058
		c1.134,0,2.057-0.918,2.057-2.058v-12.319C72.273,128.529,71.349,127.606,70.217,127.606"/>
	<path fill="#00A99D" d="M59.866,127.606c-1.14,0-2.063,0.926-2.063,2.059v12.319c0,1.14,0.923,2.058,2.063,2.058
		c1.13,0,2.055-0.918,2.055-2.058v-12.319C61.921,128.529,60.997,127.606,59.866,127.606"/>
	<path fill="#00A99D" d="M48.645,127.606c-1.137,0-2.063,0.926-2.063,2.059v12.319c0,1.14,0.926,2.058,2.063,2.058
		c1.134,0,2.056-0.918,2.056-2.058v-12.319C50.701,128.529,49.779,127.606,48.645,127.606"/>
	<path fill="#00A99D" d="M109.805,27.789H42.917c-7.02,0-12.735,5.72-12.735,12.739v66.885c0,7.028,5.716,12.747,12.735,12.747
		h66.887c7.021,0,12.74-5.719,12.74-12.747V40.528C122.545,33.509,116.826,27.789,109.805,27.789 M49.386,48.115
		c-2.245,0-4.062-1.819-4.062-4.06c0-2.239,1.817-4.062,4.062-4.062c2.235,0,4.058,1.823,4.058,4.062
		C53.444,46.296,51.622,48.115,49.386,48.115 M97.879,94.16H55.298V51.18h42.581V94.16z"/>
	<path fill="#00A99D" d="M129.656,47.767h12.322c1.139,0,2.064-0.926,2.064-2.058s-0.926-2.057-2.064-2.057h-12.322
		c-1.135,0-2.057,0.925-2.057,2.057S128.521,47.767,129.656,47.767"/>
	<path fill="#00A99D" d="M141.979,54.873h-12.32c-1.137,0-2.059,0.922-2.059,2.056c0,1.136,0.924,2.058,2.059,2.058h12.32
		c1.135,0,2.064-0.922,2.064-2.058C144.043,55.792,143.117,54.873,141.979,54.873"/>
	<path fill="#00A99D" d="M141.979,66.305h-12.32c-1.137,0-2.059,0.921-2.059,2.063c0,1.134,0.924,2.054,2.059,2.054h12.32
		c1.135,0,2.064-0.92,2.064-2.054C144.043,67.227,143.117,66.305,141.979,66.305"/>
	<path fill="#00A99D" d="M141.979,77.52h-12.32c-1.137,0-2.059,0.925-2.059,2.057c0,1.133,0.924,2.057,2.059,2.057h12.32
		c1.135,0,2.064-0.924,2.064-2.057C144.043,78.444,143.117,77.52,141.979,77.52"/>
	<path fill="#00A99D" d="M141.979,87.866h-12.32c-1.137,0-2.059,0.926-2.059,2.058c0,1.141,0.924,2.067,2.059,2.067h12.32
		c1.135,0,2.064-0.927,2.064-2.067C144.043,88.79,143.117,87.866,141.979,87.866"/>
	<path fill="#00A99D" d="M141.979,99.091h-12.32c-1.137,0-2.059,0.918-2.059,2.058c0,1.133,0.924,2.061,2.059,2.061h12.32
		c1.135,0,2.064-0.928,2.064-2.061C144.043,100.009,143.117,99.091,141.979,99.091"/>
	<path fill="#00A99D" d="M88.539,74.796c-0.199-0.199-0.434-0.298-0.709-0.298h-3.521v-4.626l2.723-2.72
		c0.197-0.2,0.299-0.435,0.299-0.708c0-0.271-0.102-0.509-0.299-0.707c-0.201-0.199-0.436-0.3-0.709-0.3s-0.51,0.101-0.707,0.3
		l-2.723,2.721H69.619l-2.72-2.721c-0.2-0.199-0.436-0.3-0.709-0.3c-0.272,0-0.509,0.101-0.707,0.3
		c-0.2,0.197-0.299,0.436-0.299,0.707c0,0.273,0.099,0.508,0.299,0.708l2.72,2.72v4.626H64.68c-0.273,0-0.509,0.099-0.707,0.298
		c-0.2,0.199-0.299,0.435-0.299,0.708c0,0.271,0.099,0.507,0.299,0.708c0.198,0.197,0.434,0.298,0.707,0.298h3.522
		c0,1.677,0.305,3.115,0.912,4.309l-3.176,3.571c-0.179,0.211-0.259,0.452-0.244,0.731c0.016,0.277,0.123,0.509,0.323,0.699
		c0.2,0.168,0.424,0.252,0.675,0.252c0.295,0,0.546-0.11,0.755-0.332l2.878-3.255l0.237,0.222c0.148,0.137,0.375,0.307,0.685,0.512
		c0.309,0.204,0.654,0.407,1.039,0.611c0.382,0.206,0.839,0.379,1.367,0.52c0.53,0.144,1.062,0.214,1.595,0.214V70.471h2.016v14.094
		c0.503,0,1.012-0.07,1.524-0.208c0.515-0.133,0.944-0.286,1.29-0.452c0.346-0.169,0.688-0.359,1.021-0.575
		c0.336-0.215,0.559-0.363,0.662-0.448c0.104-0.084,0.184-0.152,0.234-0.205l3.115,3.099c0.189,0.199,0.426,0.299,0.707,0.299
		c0.283,0,0.52-0.1,0.709-0.299c0.199-0.199,0.299-0.435,0.299-0.708c0-0.271-0.1-0.51-0.299-0.71l-3.271-3.284
		c0.703-1.248,1.053-2.768,1.053-4.562h3.523c0.273,0,0.51-0.101,0.707-0.298c0.199-0.201,0.301-0.436,0.301-0.708
		C88.84,75.231,88.738,74.996,88.539,74.796"/>
	<path fill="#00A99D" d="M79.818,62.882c-0.981-0.98-2.168-1.471-3.561-1.471c-1.396,0-2.584,0.49-3.565,1.471
		c-0.979,0.981-1.469,2.167-1.469,3.562h10.065C81.289,65.049,80.799,63.863,79.818,62.882"/>
</g>
</svg>
