<?xml version="1.0" encoding="UTF-8" standalone="no"?>
<!-- Created with Inkscape (http://www.inkscape.org/) -->

<svg
   xmlns:dc="http://purl.org/dc/elements/1.1/"
   xmlns:cc="http://creativecommons.org/ns#"
   xmlns:rdf="http://www.w3.org/1999/02/22-rdf-syntax-ns#"
   xmlns:svg="http://www.w3.org/2000/svg"
   xmlns="http://www.w3.org/2000/svg"
   xmlns:inkscape="http://www.inkscape.org/namespaces/inkscape"
   version="1.1"
   width="129.1125"
   height="149.55"
   id="svg2"
   xml:space="preserve"><metadata
     id="metadata8"><rdf:RDF><cc:Work
         rdf:about=""><dc:format>image/svg+xml</dc:format><dc:type
           rdf:resource="http://purl.org/dc/dcmitype/StillImage" /></cc:Work></rdf:RDF></metadata><defs
     id="defs6"><clipPath
       id="clipPath18"><path
         d="m 0,0 1032.91,0 0,1196 L 0,1196 0,0 z"
         inkscape:connector-curvature="0"
         id="path20" /></clipPath></defs><g
     transform="matrix(1.25,0,0,-1.25,0,149.55)"
     id="g10"><g
       transform="scale(0.1,0.1)"
       id="g12"><g
         id="g14"><g
           clip-path="url(#clipPath18)"
           id="g16"><path
             d="m 516.457,1030.74 c 159.578,0 235.254,-119.127 235.75,-301.271 l -471.5,0 c 0.496,182.144 76.172,301.271 235.75,301.271 z m 407.059,-301.271 -5.661,0 C 917.195,1003.1 767.5,1196.4 516.457,1196.4 265.414,1196.4 115.719,1003.1 115.059,729.469 l -5.661,0 C 49.2305,729.469 0,680.238 0,620.066 L 0,109.398 C 0,49.2305 49.2305,0 109.398,0 l 814.118,0 c 60.168,0 109.394,49.2305 109.394,109.398 l 0,510.668 c 0,60.172 -49.226,109.403 -109.394,109.403"
             inkscape:connector-curvature="0"
             id="path22"
             style="fill:#b1b1b0;fill-opacity:1;fill-rule:nonzero;stroke:none" /></g></g></g></g></svg>