<?xml version="1.0" encoding="utf-8"?>
<!-- Generator: Adobe Illustrator 16.0.0, SVG Export Plug-In . SVG Version: 6.00 Build 0)  -->
<!DOCTYPE svg PUBLIC "-//W3C//DTD SVG 1.1//EN" "http://www.w3.org/Graphics/SVG/1.1/DTD/svg11.dtd">
<svg version="1.1" id="Layer_1" xmlns="http://www.w3.org/2000/svg" xmlns:xlink="http://www.w3.org/1999/xlink" x="0px" y="0px"
	 width="149.312px" height="62.627px" viewBox="0 0 149.312 62.627" enable-background="new 0 0 149.312 62.627"
	 xml:space="preserve">
<g>
	<rect x="3" y="3" fill="#009345" width="143.312" height="56.627"/>
	<rect x="3" y="3" fill="none" stroke="#E6E6E6" stroke-width="6" stroke-miterlimit="10" width="143.312" height="56.627"/>
	<g>
		<path fill="#FFFFFF" d="M45.001,34.294h-14.04v9.662h16.415v5.239H24.162V15.294H47.33v5.239H30.961v8.521h14.04V34.294z"/>
		<path fill="#FFFFFF" d="M67.255,27.309l6.357-12.015h7.917L71.47,32.104l10.64,17.091h-8.218l-6.543-12.224l-6.542,12.224h-7.94
			l10.315-17.091L53.123,15.294h7.87L67.255,27.309z"/>
		<path fill="#FFFFFF" d="M96.636,49.195h-6.799V15.294h6.799V49.195z"/>
		<path fill="#FFFFFF" d="M130.601,20.533h-9.593v28.662h-6.799V20.533h-9.547v-5.239h25.938V20.533z"/>
	</g>
</g>
</svg>
