<?xml version="1.0" encoding="utf-8"?>
<!-- Generator: Adobe Illustrator 16.0.0, SVG Export Plug-In . SVG Version: 6.00 Build 0)  -->
<!DOCTYPE svg PUBLIC "-//W3C//DTD SVG 1.1//EN" "http://www.w3.org/Graphics/SVG/1.1/DTD/svg11.dtd">
<svg version="1.1" id="Layer_1" xmlns="http://www.w3.org/2000/svg" xmlns:xlink="http://www.w3.org/1999/xlink" x="0px" y="0px"
	 width="150px" height="150px" viewBox="0 0 150 150" enable-background="new 0 0 150 150" xml:space="preserve">
<g>
	<path fill="#ED1C24" d="M74.688,64.216l10.34,19.739c9.281-3.922,15.807-13.118,15.807-23.812c0-14.245-11.59-25.834-25.833-25.834
		c-14.244,0-25.835,11.59-25.835,25.834c0,10.497,6.298,19.532,15.309,23.571L74.688,64.216z M53.863,60.146
		c0-11.654,9.483-21.138,21.137-21.138c11.656,0,21.138,9.484,21.138,21.138c0,7.056-3.49,13.517-9.156,17.413L74.689,54.096
		L62.579,77.217C57.176,73.28,53.863,66.957,53.863,60.146"/>
	<path fill="#ED1C24" d="M69.25,85.244c1.938,0.463,3.945,0.736,6.024,0.736c1.878,0,3.708-0.214,5.475-0.597l-5.788-11.046
		L69.25,85.244z"/>
	<path fill="#ED1C24" d="M75.311,90.678c-2.865,0-5.63-0.425-8.26-1.168l-6.71,12.812h13.062v-4.991h3.816v4.991h12.439
		l-6.638-12.668C80.554,90.299,77.976,90.678,75.311,90.678"/>
	<path fill="#ED1C24" d="M120.524,97.625H98.206l-3.955-7.546c10.28-6.369,16.69-17.645,16.69-29.936
		c0-17.043-12.258-31.457-28.626-34.571V4.114H69.106v21.458C52.74,28.686,40.48,43.1,40.48,60.143
		c0,12.034,6.236,23.193,16.231,29.624l-4.115,7.858H29.476v14.385h15.587l-14.318,27.339l12.482,6.537L60.97,112.01h8.139v14.092
		H82.32V112.01h7.514l17.748,33.876l12.48-6.537l-14.32-27.339h14.782V97.625z M115.827,107.313H97.98l15.744,30.052l-4.161,2.181
		l-16.888-32.232H77.624v14.092h-3.818v-14.092H58.128l-16.885,32.232l-4.159-2.181l15.741-30.052H34.173v-4.991h21.266l7.57-14.45
		C52.505,83.04,45.181,72.444,45.181,60.143c0-16.192,12.678-29.443,28.625-30.436V8.812h3.818v20.896
		c15.944,0.993,28.623,14.244,28.623,30.436c0,12.496-7.555,23.248-18.326,27.97l7.445,14.209h20.463v4.991H115.827z"/>
</g>
</svg>
