<?xml version="1.0" encoding="utf-8"?>
<!-- Generator: Adobe Illustrator 16.0.0, SVG Export Plug-In . SVG Version: 6.00 Build 0)  -->
<!DOCTYPE svg PUBLIC "-//W3C//DTD SVG 1.1//EN" "http://www.w3.org/Graphics/SVG/1.1/DTD/svg11.dtd">
<svg version="1.1" id="Layer_1" xmlns="http://www.w3.org/2000/svg" xmlns:xlink="http://www.w3.org/1999/xlink" x="0px" y="0px"
	 width="150px" height="150px" viewBox="0 0 150 150" enable-background="new 0 0 150 150" xml:space="preserve">
<path fill="#F15000" d="M149.839,74.839c0,41.332-33.507,74.839-74.838,74.839c-41.333,0-74.839-33.507-74.839-74.839
	C0.162,33.506,33.668,0,75,0C116.332,0,149.839,33.506,149.839,74.839"/>
<g>
	<path fill="#FFFFFF" d="M90.172,77.936h-0.016c2.416-2.104,3.951-5.191,3.951-8.643c0-6.328-5.127-11.46-11.457-11.46
		s-11.461,5.132-11.461,11.46c0,3.452,1.534,6.54,3.95,8.643h-0.013c-4.072,2.531-6.801,7.049-6.801,12.176v7.262
		c0,1.195,0.966,2.16,2.158,2.16h24.328c1.193,0,2.16-0.965,2.16-2.16v-7.262C96.973,84.984,94.246,80.469,90.172,77.936"/>
	<path fill="#FFFFFF" d="M67.277,68.895c0-6.293,4.134-11.618,9.834-13.413c-2.039-5.206-5.9-7.015-10.549-7.015
		c-6.055,0-10.964,5.06-10.964,11.114c0,3.303,1.467,6.419,3.779,8.419h-0.012C55.469,70,53,74.445,53,79.35v6.945
		C53,87.439,53.784,89,54.924,89h10.228c0.21-5,1.951-8.761,5.351-10.935C68.488,75.632,67.277,72.3,67.277,68.895z"/>
</g>
</svg>
