<?xml version="1.0" encoding="utf-8"?>
<!-- Generator: Adobe Illustrator 16.0.0, SVG Export Plug-In . SVG Version: 6.00 Build 0)  -->
<!DOCTYPE svg PUBLIC "-//W3C//DTD SVG 1.1//EN" "http://www.w3.org/Graphics/SVG/1.1/DTD/svg11.dtd">
<svg version="1.1" id="Layer_1" xmlns="http://www.w3.org/2000/svg" xmlns:xlink="http://www.w3.org/1999/xlink" x="0px" y="0px"
	 width="150px" height="150px" viewBox="0 0 150 150" enable-background="new 0 0 150 150" xml:space="preserve">
<path fill="#F15000" d="M149.839,74.839c0,41.332-33.507,74.839-74.838,74.839c-41.333,0-74.839-33.507-74.839-74.839
	C0.162,33.506,33.668,0,75,0C116.332,0,149.839,33.506,149.839,74.839"/>
<g>
	<path fill="#FFFFFF" d="M66.562,74.252h-0.015c2.417-2.103,3.951-5.19,3.951-8.643c0-6.328-5.129-11.46-11.457-11.46
		c-6.33,0-11.461,5.132-11.461,11.46c0,3.452,1.534,6.54,3.951,8.643h-0.013c-4.073,2.531-6.802,7.05-6.802,12.177v7.261
		c0,1.196,0.967,2.161,2.159,2.161h24.328c1.192,0,2.159-0.965,2.159-2.161v-7.261C73.362,81.302,70.636,76.786,66.562,74.252"/>
	<path fill="#FFFFFF" d="M98.484,74.252h-0.016c2.416-2.103,3.95-5.19,3.95-8.643c0-6.328-5.127-11.46-11.456-11.46
		c-6.33,0-11.462,5.132-11.462,11.46c0,3.452,1.534,6.54,3.95,8.643h-0.013c-4.072,2.531-6.801,7.05-6.801,12.177v7.261
		c0,1.196,0.966,2.161,2.158,2.161h24.329c1.192,0,2.159-0.965,2.159-2.161v-7.261C105.284,81.302,102.559,76.786,98.484,74.252"/>
</g>
</svg>
