<?xml version="1.0" encoding="UTF-8" standalone="no"?>
<!-- Created with Inkscape (http://www.inkscape.org/) -->

<svg
   xmlns:dc="http://purl.org/dc/elements/1.1/"
   xmlns:cc="http://creativecommons.org/ns#"
   xmlns:rdf="http://www.w3.org/1999/02/22-rdf-syntax-ns#"
   xmlns:svg="http://www.w3.org/2000/svg"
   xmlns="http://www.w3.org/2000/svg"
   xmlns:inkscape="http://www.inkscape.org/namespaces/inkscape"
   version="1.1"
   width="149.78751"
   height="149.78751"
   id="svg2"
   xml:space="preserve"><metadata
     id="metadata8"><rdf:RDF><cc:Work
         rdf:about=""><dc:format>image/svg+xml</dc:format><dc:type
           rdf:resource="http://purl.org/dc/dcmitype/StillImage" /></cc:Work></rdf:RDF></metadata><defs
     id="defs6" /><g
     transform="matrix(1.25,0,0,-1.25,0,149.7875)"
     id="g10"><g
       transform="scale(0.1,0.1)"
       id="g12"><path
         d="M 1198.33,599.164 C 1198.33,268.254 930.078,0 599.168,0 268.258,0 0,268.254 0,599.164 c 0,330.91 268.258,599.166 599.168,599.166 330.91,0 599.162,-268.256 599.162,-599.166"
         inkscape:connector-curvature="0"
         id="path14"
         style="fill:#f04624;fill-opacity:1;fill-rule:nonzero;stroke:none" /><path
         d="m 558.52,664.809 -0.129,0 c 21.14,18.382 34.566,45.41 34.566,75.625 0,55.375 -44.891,100.265 -100.266,100.265 -55.375,0 -100.265,-44.89 -100.265,-100.265 0,-30.211 13.418,-57.231 34.554,-75.614 l -0.105,0 c -35.652,-22.16 -59.52,-61.699 -59.52,-106.535 l 0,-63.566 c 0,-10.434 8.461,-18.891 18.891,-18.891 l 212.887,0 c 10.433,0 18.89,8.457 18.89,18.891 l 0,63.566 c 0,44.832 -23.855,84.363 -59.503,106.524"
         inkscape:connector-curvature="0"
         id="path16"
         style="fill:#d2d3d2;fill-opacity:1;fill-rule:nonzero;stroke:none" /><path
         d="m 759.551,584.469 -0.153,0 c 25.375,22.066 41.489,54.508 41.489,90.777 0,66.469 -53.883,120.356 -120.356,120.356 -66.469,0 -120.355,-53.887 -120.355,-120.356 0,-36.262 16.109,-68.699 41.48,-90.766 l -0.125,0 C 558.734,557.883 530.09,510.426 530.09,456.602 l 0,-76.301 c 0,-12.524 10.152,-22.676 22.672,-22.676 l 255.539,0 c 12.523,0 22.676,10.152 22.676,22.676 l 0,76.301 c 0,53.816 -28.637,101.265 -71.426,127.867"
         inkscape:connector-curvature="0"
         id="path18"
         style="fill:#f4f4f5;fill-opacity:1;fill-rule:nonzero;stroke:none" /></g></g></svg>