<?xml version="1.0" encoding="utf-8"?>
<!-- Generator: Adobe Illustrator 16.0.0, SVG Export Plug-In . SVG Version: 6.00 Build 0)  -->
<!DOCTYPE svg PUBLIC "-//W3C//DTD SVG 1.1//EN" "http://www.w3.org/Graphics/SVG/1.1/DTD/svg11.dtd">
<svg version="1.1" id="Layer_1" xmlns="http://www.w3.org/2000/svg" xmlns:xlink="http://www.w3.org/1999/xlink" x="0px" y="0px"
	 width="150px" height="150px" viewBox="0 0 150 150" enable-background="new 0 0 150 150" xml:space="preserve">
<path fill="#93278F" d="M147.759,78.979c0-10.1-11.999-19.017-30.357-24.494c4.441-18.647,2.721-33.502-6.021-38.552
	c-2.099-1.216-4.492-1.797-7.1-1.797c-8.247,0-18.705,5.842-29.276,15.841c-9.611-9.088-19.107-14.707-26.951-15.66
	c-1.137-4.659-5.308-8.134-10.32-8.134c-5.879,0-10.649,4.768-10.649,10.652c0,3.638,1.829,6.846,4.612,8.768
	c-2.219,7.21-1.859,17.294,0.9,28.883C14.24,59.962,2.241,68.878,2.241,78.979c0,10.098,11.999,19.018,30.354,24.499
	c-4.437,18.646-2.716,33.5,6.022,38.545c2.104,1.214,4.492,1.796,7.103,1.796c8.247,0,18.703-5.838,29.276-15.841
	c10.569,10.003,21.027,15.841,29.273,15.841c2.612,0,4.999-0.582,7.104-1.796c8.737-5.051,10.456-19.904,6.022-38.545
	c4.456-1.337,8.527-2.866,12.147-4.571c1.937,1.945,4.609,3.158,7.564,3.158c5.881,0,10.644-4.77,10.644-10.657
	c0-2.169-0.652-4.188-1.771-5.868C147.116,83.424,147.759,81.236,147.759,78.979 M104.274,21.241c1.404,0,2.569,0.277,3.552,0.846
	c4.869,2.812,6.44,14.346,2.675,30.561c-5.752-1.334-11.984-2.341-18.562-2.995c-3.869-5.401-7.885-10.337-11.941-14.669
	C89.569,25.97,98.381,21.241,104.274,21.241 M45.233,87.438c1.149,2.206,2.362,4.419,3.641,6.633
	c1.281,2.218,2.604,4.369,3.943,6.478c-4.074-0.573-7.914-1.282-11.486-2.117C42.391,94.93,43.697,91.25,45.233,87.438
	 M41.331,59.526c3.572-0.836,7.412-1.546,11.483-2.116c-1.337,2.109-2.662,4.255-3.94,6.471c-1.276,2.215-2.491,4.426-3.641,6.634
	C43.697,66.71,42.391,63.032,41.331,59.526 M48.966,78.979c1.792-3.76,3.79-7.607,6.058-11.541c2.26-3.913,4.581-7.58,6.931-11.018
	c4.159-0.326,8.498-0.522,13.045-0.522c4.549,0,8.886,0.193,13.044,0.52c2.35,3.438,4.674,7.104,6.931,11.016
	c2.271,3.935,4.265,7.78,6.058,11.542c-1.793,3.762-3.787,7.605-6.058,11.538c-2.257,3.915-4.581,7.58-6.934,11.021
	c-4.161,0.33-8.492,0.529-13.041,0.529c-4.547,0-8.88-0.199-13.039-0.523c-2.355-3.437-4.677-7.106-6.937-11.021
	C52.756,86.584,50.758,82.738,48.966,78.979 M97.185,57.413c4.076,0.572,7.914,1.28,11.483,2.116
	c-1.063,3.505-2.363,7.181-3.908,10.991c-1.15-2.205-2.36-4.421-3.638-6.633C99.844,61.668,98.522,59.519,97.185,57.413
	 M101.126,94.071c1.273-2.214,2.489-4.427,3.64-6.633c1.539,3.812,2.845,7.491,3.906,10.993c-3.573,0.835-7.411,1.544-11.487,2.117
	C98.522,98.44,99.844,96.289,101.126,94.071 M74.999,39.998c2.513,2.699,5.058,5.704,7.588,8.959
	c-2.498-0.106-5.022-0.164-7.588-0.164c-2.563,0-5.093,0.058-7.589,0.167C69.942,45.702,72.481,42.701,74.999,39.998 M38.557,27.406
	c3.889-0.302,7.177-2.663,8.772-6.022c5.832,0.735,13.92,5.365,22.67,13.6c-4.052,4.332-8.065,9.266-11.938,14.669
	c-6.575,0.653-12.812,1.661-18.562,2.995C36.946,41.662,36.827,32.825,38.557,27.406 M34.453,96.577
	C18.535,91.733,9.341,84.607,9.341,78.979c0-5.624,9.194-12.756,25.112-17.595c1.718,5.654,3.97,11.565,6.696,17.595
	C38.423,85.009,36.171,90.921,34.453,96.577 M45.724,136.719c-1.407,0-2.566-0.276-3.55-0.848
	c-4.869-2.812-6.444-14.347-2.676-30.555c5.751,1.33,11.987,2.34,18.562,2.991c3.872,5.4,7.885,10.336,11.937,14.666
	C60.425,131.987,51.619,136.719,45.724,136.719 M74.999,117.959c-2.515-2.698-5.054-5.703-7.586-8.958
	c2.493,0.104,5.022,0.163,7.586,0.163c2.565,0,5.09-0.06,7.584-0.169C80.053,112.256,77.512,115.261,74.999,117.959
	 M107.826,135.872c-0.982,0.57-2.147,0.85-3.552,0.85c-5.894,0-14.705-4.729-24.276-13.745c4.051-4.327,8.063-9.265,11.936-14.667
	c6.577-0.653,12.815-1.657,18.562-2.993C114.267,121.53,112.695,133.06,107.826,135.872 M140.146,81.247
	c-0.965-0.29-1.972-0.489-3.036-0.489c-5.88,0-10.646,4.766-10.646,10.649c0,0.348,0.07,0.674,0.101,1.018
	c-3.177,1.5-6.887,2.897-11.015,4.154c-1.723-5.652-3.971-11.565-6.699-17.596c2.729-6.033,4.977-11.943,6.699-17.597
	c15.915,4.841,25.108,11.97,25.108,17.597C140.657,79.709,140.452,80.477,140.146,81.247"/>
<path fill="#93278F" d="M75,90.982c8.809,0,15.979-7.172,15.979-15.982c0-8.812-7.172-15.982-15.979-15.982
	c-8.81,0-15.978,7.171-15.978,15.982C59.022,83.811,66.189,90.982,75,90.982"/>
</svg>
