<?xml version="1.0" encoding="UTF-8" standalone="no"?>
<!-- Created with Inkscape (http://www.inkscape.org/) -->

<svg
   xmlns:dc="http://purl.org/dc/elements/1.1/"
   xmlns:cc="http://creativecommons.org/ns#"
   xmlns:rdf="http://www.w3.org/1999/02/22-rdf-syntax-ns#"
   xmlns:svg="http://www.w3.org/2000/svg"
   xmlns="http://www.w3.org/2000/svg"
   xmlns:inkscape="http://www.inkscape.org/namespaces/inkscape"
   version="1.1"
   width="149.85001"
   height="149.85001"
   id="svg2"
   xml:space="preserve"><metadata
     id="metadata8"><rdf:RDF><cc:Work
         rdf:about=""><dc:format>image/svg+xml</dc:format><dc:type
           rdf:resource="http://purl.org/dc/dcmitype/StillImage" /></cc:Work></rdf:RDF></metadata><defs
     id="defs6"><clipPath
       id="clipPath18"><path
         d="M 0,1198.75 0,0 l 1198.75,0 0,1198.75 -1198.75,0 z"
         inkscape:connector-curvature="0"
         id="path20" /></clipPath></defs><g
     transform="matrix(1.25,0,0,-1.25,0,149.85)"
     id="g10"><g
       transform="scale(0.1,0.1)"
       id="g12"><g
         id="g14"><g
           clip-path="url(#clipPath18)"
           id="g16"><path
             d="M 1198.75,599.375 C 1198.75,268.348 930.402,0 599.375,0 268.348,0 0,268.348 0,599.375 c 0,331.027 268.348,599.375 599.375,599.375 331.027,0 599.375,-268.348 599.375,-599.375"
             inkscape:connector-curvature="0"
             id="path22"
             style="fill:#f8a62c;fill-opacity:1;fill-rule:nonzero;stroke:none" /><path
             d="m 785.312,754.449 c 0,-102.691 -83.246,-185.937 -185.937,-185.937 -102.691,0 -185.937,83.246 -185.937,185.937 0,102.688 83.246,185.938 185.937,185.938 102.691,0 185.937,-83.25 185.937,-185.938"
             inkscape:connector-curvature="0"
             id="path24"
             style="fill:#f4f4f5;fill-opacity:1;fill-rule:nonzero;stroke:none" /><path
             d="M 721.449,614.207 C 787.555,573.109 831.797,499.801 831.797,416.66 l 0,-117.875 c 0,-19.347 -15.684,-35.031 -35.031,-35.031 l -394.782,0 c -19.347,0 -35.031,15.684 -35.031,35.031 l 0,117.875 c 0,83.152 44.254,156.473 110.375,197.567"
             inkscape:connector-curvature="0"
             id="path26"
             style="fill:#f4f4f5;fill-opacity:1;fill-rule:nonzero;stroke:none" /><path
             d="m 577.125,759.484 c 0,-27.558 -22.34,-49.898 -49.898,-49.898 -27.559,0 -49.899,22.34 -49.899,49.898 0,27.559 22.34,49.899 49.899,49.899 27.558,0 49.898,-22.34 49.898,-49.899 z"
             inkscape:connector-curvature="0"
             id="path28"
             style="fill:none;stroke:#505256;stroke-width:20;stroke-linecap:butt;stroke-linejoin:miter;stroke-miterlimit:10;stroke-opacity:1;stroke-dasharray:none" /><path
             d="m 721.449,759.484 c 0,-27.558 -22.34,-49.898 -49.898,-49.898 -27.559,0 -49.899,22.34 -49.899,49.898 0,27.559 22.34,49.899 49.899,49.899 27.558,0 49.898,-22.34 49.898,-49.899 z"
             inkscape:connector-curvature="0"
             id="path30"
             style="fill:none;stroke:#505256;stroke-width:20;stroke-linecap:butt;stroke-linejoin:miter;stroke-miterlimit:10;stroke-opacity:1;stroke-dasharray:none" /><path
             d="m 571.855,781.516 18.911,4.824 c 5.629,1.433 11.546,1.269 17.086,-0.477 l 13.8,-4.347"
             inkscape:connector-curvature="0"
             id="path32"
             style="fill:none;stroke:#505256;stroke-width:20;stroke-linecap:butt;stroke-linejoin:miter;stroke-miterlimit:10;stroke-opacity:1;stroke-dasharray:none" /><path
             d="m 641.605,570.785 -33.882,-58.683 c -4.188,-7.25 -14.653,-7.25 -18.84,0 L 555,570.785 c -4.184,7.254 1.047,16.32 9.422,16.32 l 67.762,0 c 8.375,0 13.609,-9.066 9.421,-16.32"
             inkscape:connector-curvature="0"
             id="path34"
             style="fill:#845333;fill-opacity:1;fill-rule:nonzero;stroke:none" /><path
             d="m 663.766,368.695 -51.868,-51.871 c -6.918,-6.914 -18.128,-6.914 -25.043,0 l -51.871,51.871 c -5.422,5.422 -6.738,13.715 -3.261,20.547 l 51.867,101.981 c 6.566,12.906 25.004,12.906 31.57,0 l 51.867,-101.981 c 3.477,-6.832 2.161,-15.125 -3.261,-20.547"
             inkscape:connector-curvature="0"
             id="path36"
             style="fill:#845333;fill-opacity:1;fill-rule:nonzero;stroke:none" /><path
             d="m 635.102,932.934 c -19.95,-23.907 -0.707,-72.836 42.976,-109.289 43.684,-36.454 115.219,-22.711 115.219,-22.711 0,0 0.707,72.836 -42.977,109.289 -43.683,36.453 -95.269,46.621 -115.218,22.711"
             inkscape:connector-curvature="0"
             id="path38"
             style="fill:#3a3a3c;fill-opacity:1;fill-rule:nonzero;stroke:none" /><path
             d="m 558.656,932.934 c 19.949,-23.907 0.707,-72.836 -42.976,-109.289 -43.684,-36.454 -115.219,-22.711 -115.219,-22.711 0,0 -0.707,72.836 42.977,109.289 43.683,36.453 95.269,46.621 115.218,22.711"
             inkscape:connector-curvature="0"
             id="path40"
             style="fill:#3a3a3c;fill-opacity:1;fill-rule:nonzero;stroke:none" /><path
             d="M 638.848,955.52 C 655.234,924.496 622.57,875.074 565.887,845.133 509.203,815.191 433.582,956.707 433.582,956.707 c 0,0 16.281,-29.176 72.965,0.766 56.68,29.941 115.914,29.066 132.301,-1.953"
             inkscape:connector-curvature="0"
             id="path42"
             style="fill:#3a3a3c;fill-opacity:1;fill-rule:nonzero;stroke:none" /></g></g></g></g></svg>