<?xml version="1.0" encoding="UTF-8" standalone="no"?>
<!-- Created with Inkscape (http://www.inkscape.org/) -->

<svg
   xmlns:dc="http://purl.org/dc/elements/1.1/"
   xmlns:cc="http://creativecommons.org/ns#"
   xmlns:rdf="http://www.w3.org/1999/02/22-rdf-syntax-ns#"
   xmlns:svg="http://www.w3.org/2000/svg"
   xmlns="http://www.w3.org/2000/svg"
   xmlns:inkscape="http://www.inkscape.org/namespaces/inkscape"
   version="1.1"
   width="110.5125"
   height="149.125"
   id="svg2"
   xml:space="preserve"><metadata
     id="metadata8"><rdf:RDF><cc:Work
         rdf:about=""><dc:format>image/svg+xml</dc:format><dc:type
           rdf:resource="http://purl.org/dc/dcmitype/StillImage" /></cc:Work></rdf:RDF></metadata><defs
     id="defs6"><clipPath
       id="clipPath18"><path
         d="m 0,0 884,0 0,1192.96 -884,0 L 0,0 z"
         inkscape:connector-curvature="0"
         id="path20" /></clipPath></defs><g
     transform="matrix(1.25,0,0,-1.25,0,149.125)"
     id="g10"><g
       transform="scale(0.1,0.1)"
       id="g12"><g
         id="g14"><g
           clip-path="url(#clipPath18)"
           id="g16"><path
             d="m 353.375,1082.81 c 35.484,0 64.25,-28.76 64.25,-64.25 0,-35.482 -28.766,-64.248 -64.25,-64.248 -35.484,0 -64.25,28.766 -64.25,64.248 0,35.49 28.766,64.25 64.25,64.25 z M 706.75,784.051 c 0,212.902 -158.211,385.499 -353.375,385.499 C 158.211,1169.55 0,996.953 0,784.051 0,616.57 97.9258,474.098 234.699,420.898 l 0,-293.019 c 0,-6.789 2.078,-13.418 5.957,-18.988 l 65.84,-94.6293 C 315.957,0.671875 333.98,-3.89062 348.766,3.57031 L 460.953,60.1797 c 16.805,8.4805 23.223,29.1992 14.156,45.6993 l -19.164,34.859 c -5.734,10.442 -5.453,23.141 0.746,33.321 l 25.129,41.222 c 6.121,10.047 6.481,22.586 0.934,32.965 l -21.387,40.043 c -5.176,9.691 -5.226,21.316 -0.14,31.059 l 26.695,51.093 c 2.48,4.75 3.777,10.032 3.777,15.395 l 0,43.391 C 618.113,487.949 706.75,624.699 706.75,784.051"
             inkscape:connector-curvature="0"
             id="path22"
             style="fill:#b1b1b0;fill-opacity:1;fill-rule:nonzero;stroke:none" /><path
             d="m 333.824,1082.03 c 31.918,15.51 70.36,2.2 85.864,-29.73 15.5,-31.91 2.191,-70.355 -29.727,-85.859 -31.922,-15.5 -70.363,-2.191 -85.863,29.731 -15.504,31.918 -2.196,70.358 29.726,85.858 z M 782.211,967.66 C 689.203,1159.18 471.488,1245.31 295.934,1160.05 120.375,1074.8 53.457,850.43 146.469,658.914 219.633,508.262 369.961,422.879 516.23,434.777 L 644.238,171.199 c 2.965,-6.109 7.731,-11.16 13.653,-14.48 l 100.566,-56.36 c 14.445,-8.0973 32.648,-4.3199 42.691,8.852 l 76.188,99.93 c 11.41,14.964 8.133,36.414 -7.227,47.289 l -32.468,22.988 c -9.723,6.883 -15.02,18.437 -13.887,30.293 l 4.594,48.062 c 1.121,11.715 -4.039,23.149 -13.559,30.059 l -36.73,26.68 c -8.891,6.461 -14.016,16.894 -13.696,27.875 l 1.692,57.625 c 0.16,5.355 -0.985,10.676 -3.325,15.496 l -18.957,39.031 C 831.832,662.59 851.824,824.32 782.211,967.66"
             inkscape:connector-curvature="0"
             id="path24"
             style="fill:#cdccca;fill-opacity:1;fill-rule:nonzero;stroke:none" /></g></g></g></g></svg>