<?xml version="1.0" encoding="utf-8"?>
<!-- Generator: Adobe Illustrator 16.0.0, SVG Export Plug-In . SVG Version: 6.00 Build 0)  -->
<!DOCTYPE svg PUBLIC "-//W3C//DTD SVG 1.1//EN" "http://www.w3.org/Graphics/SVG/1.1/DTD/svg11.dtd">
<svg version="1.1" id="Layer_1" xmlns="http://www.w3.org/2000/svg" xmlns:xlink="http://www.w3.org/1999/xlink" x="0px" y="0px"
	 width="150px" height="150px" viewBox="0 0 150 150" enable-background="new 0 0 150 150" xml:space="preserve">
<rect x="0.051" fill="#00A69C" width="149.949" height="149.949"/>
<path fill="#00554F" d="M120.432,106.111l-13.367-13.37c4.097-6.78,6.255-14.527,6.255-23.027c0-24.845-20.14-44.986-44.985-44.986
	c-24.845,0-44.984,20.141-44.984,44.986c0,24.842,20.14,44.985,44.984,44.985c8.5,0,16.044-1.956,22.823-6.053l13.257,13.257
	c4.425,4.423,11.596,4.423,16.018,0C124.792,117.542,124.792,110.472,120.432,106.111 M68.334,95.11
	c-14.026,0-25.396-11.37-25.396-25.396c0-14.028,11.371-25.399,25.396-25.399s25.398,11.371,25.398,25.399
	C93.732,83.74,82.36,95.11,68.334,95.11"/>
<path fill="#FFFFFF" d="M122.681,103.728l-13.367-13.37c4.097-6.779,6.255-14.527,6.255-23.026c0-24.846-20.14-44.986-44.984-44.986
	s-44.985,20.14-44.985,44.986c0,24.842,20.14,44.984,44.985,44.984c8.5,0,16.043-1.956,22.824-6.053l13.255,13.256
	c4.425,4.424,11.596,4.424,16.018,0C127.041,115.157,127.041,108.088,122.681,103.728 M70.584,92.728
	c-14.026,0-25.396-11.371-25.396-25.396c0-14.028,11.37-25.399,25.396-25.399c14.025,0,25.398,11.371,25.398,25.399
	C95.982,81.356,84.609,92.728,70.584,92.728"/>
</svg>
